<svg id="svg" version="1.1" xmlns="http://www.w3.org/2000/svg" xmlns:xlink="http://www.w3.org/1999/xlink" width="400" height="400" viewBox="0, 0, 400,400"><g id="svgg"><path id="path0" d="M178.300 0.275 C 176.375 0.361,174.800 0.604,174.800 0.816 C 174.800 1.027,173.461 1.200,171.824 1.200 C 170.187 1.200,168.736 1.380,168.600 1.600 C 168.464 1.820,167.463 2.000,166.376 2.000 C 165.289 2.000,164.400 2.180,164.400 2.400 C 164.400 2.620,163.410 2.800,162.200 2.800 C 160.990 2.800,160.000 2.980,160.000 3.200 C 160.000 3.420,159.201 3.600,158.224 3.600 C 157.247 3.600,156.336 3.780,156.200 4.000 C 156.064 4.220,155.344 4.400,154.600 4.400 C 153.856 4.400,153.136 4.580,153.000 4.800 C 152.864 5.020,152.043 5.200,151.176 5.200 C 150.309 5.200,149.600 5.380,149.600 5.600 C 149.600 5.820,148.880 6.000,148.000 6.000 C 147.120 6.000,146.400 6.180,146.400 6.400 C 146.400 6.620,145.860 6.800,145.200 6.800 C 144.540 6.800,144.000 6.980,144.000 7.200 C 144.000 7.420,143.370 7.600,142.600 7.600 C 141.830 7.600,141.200 7.780,141.200 8.000 C 141.200 8.220,140.746 8.400,140.190 8.400 C 139.635 8.400,138.195 8.746,136.990 9.170 C 135.786 9.593,134.800 9.841,134.800 9.721 C 134.800 9.600,134.575 9.672,134.300 9.879 C 134.025 10.086,132.990 10.500,132.000 10.798 C 131.010 11.095,130.029 11.488,129.820 11.670 C 129.611 11.851,129.116 12.000,128.720 12.000 C 128.324 12.000,128.000 12.180,128.000 12.400 C 128.000 12.620,127.460 12.800,126.800 12.800 C 126.140 12.800,125.600 12.980,125.600 13.200 C 125.600 13.420,125.240 13.600,124.800 13.600 C 124.360 13.600,124.000 13.780,124.000 14.000 C 124.000 14.220,123.550 14.400,123.000 14.400 C 122.450 14.400,122.000 14.580,122.000 14.800 C 122.000 15.020,121.651 15.200,121.224 15.200 C 120.797 15.200,120.336 15.380,120.200 15.600 C 120.064 15.820,119.603 16.000,119.176 16.000 C 118.749 16.000,118.400 16.180,118.400 16.400 C 118.400 16.620,118.128 16.800,117.795 16.800 C 117.207 16.800,116.782 16.967,114.905 17.938 C 114.413 18.192,113.738 18.400,113.405 18.400 C 113.072 18.400,112.800 18.580,112.800 18.800 C 112.800 19.020,112.440 19.200,112.000 19.200 C 111.560 19.200,111.200 19.336,111.200 19.502 C 111.200 19.669,110.615 20.059,109.900 20.370 C 109.185 20.681,108.510 21.040,108.400 21.168 C 107.994 21.640,106.392 22.400,105.805 22.400 C 105.472 22.400,105.200 22.580,105.200 22.800 C 105.200 23.020,104.880 23.200,104.488 23.200 C 104.097 23.200,103.517 23.560,103.200 24.000 C 102.883 24.440,102.387 24.800,102.098 24.800 C 101.396 24.800,97.435 26.809,97.267 27.251 C 97.193 27.443,96.956 27.600,96.739 27.600 C 96.522 27.600,95.559 28.140,94.600 28.800 C 93.641 29.460,92.703 30.000,92.516 30.000 C 92.329 30.000,91.917 30.360,91.600 30.800 C 91.283 31.240,90.743 31.600,90.400 31.600 C 90.057 31.600,89.517 31.960,89.200 32.400 C 88.883 32.840,88.343 33.200,88.000 33.200 C 87.657 33.200,87.117 33.560,86.800 34.000 C 86.483 34.440,85.991 34.800,85.708 34.800 C 85.425 34.800,84.628 35.340,83.937 36.000 C 83.246 36.660,82.478 37.200,82.229 37.200 C 81.980 37.200,81.517 37.560,81.200 38.000 C 80.883 38.440,80.375 38.800,80.072 38.800 C 79.769 38.800,79.017 39.340,78.400 40.000 C 77.783 40.660,77.071 41.200,76.816 41.200 C 76.561 41.200,76.464 41.380,76.600 41.600 C 76.736 41.820,76.589 42.000,76.274 42.000 C 75.959 42.000,75.013 42.630,74.172 43.400 C 73.331 44.170,72.452 44.800,72.218 44.800 C 71.411 44.800,70.760 46.299,71.452 46.564 C 71.789 46.694,91.356 46.805,114.933 46.811 L 157.800 46.823 159.600 47.734 C 160.749 48.315,161.870 49.341,162.700 50.568 L 164.000 52.490 164.000 118.200 L 164.000 183.910 162.700 185.839 C 160.523 189.070,159.639 189.379,152.100 189.534 C 144.704 189.687,145.220 189.333,146.218 193.574 C 146.557 195.018,146.997 196.920,147.196 197.800 C 147.394 198.680,147.936 201.020,148.400 203.000 C 148.864 204.980,149.404 207.320,149.600 208.200 C 149.796 209.080,150.336 211.420,150.800 213.400 C 151.264 215.380,151.804 217.720,152.000 218.600 C 152.196 219.480,152.718 221.730,153.161 223.600 C 153.603 225.470,154.333 228.620,154.781 230.600 C 155.230 232.580,156.038 236.090,156.577 238.400 C 157.116 240.710,158.026 244.670,158.600 247.200 C 159.174 249.730,160.084 253.690,160.623 256.000 C 161.162 258.310,161.970 261.820,162.419 263.800 C 162.867 265.780,163.597 268.930,164.039 270.800 C 164.482 272.670,165.004 274.920,165.200 275.800 C 165.890 278.899,167.239 284.616,167.617 286.046 C 169.121 291.730,166.421 295.321,159.400 296.981 C 153.004 298.494,149.711 299.264,148.200 299.600 C 147.320 299.796,145.070 300.316,143.200 300.754 C 141.330 301.193,138.810 301.772,137.600 302.039 C 136.390 302.307,134.098 302.858,132.507 303.263 C 130.916 303.668,129.206 304.003,128.707 304.006 C 127.975 304.011,127.916 304.087,128.400 304.400 C 128.759 304.632,134.820 304.790,143.474 304.794 C 159.030 304.800,159.354 304.839,161.531 306.925 C 164.146 309.430,164.000 306.653,164.000 353.816 C 164.000 377.421,164.109 397.019,164.243 397.367 C 164.426 397.845,165.062 398.000,166.843 398.000 C 168.148 398.000,169.200 398.179,169.200 398.400 C 169.200 398.629,170.400 398.800,172.000 398.800 C 173.540 398.800,174.800 398.956,174.800 399.146 C 174.800 399.994,224.014 400.146,224.860 399.300 C 225.161 398.999,226.433 398.800,228.056 398.800 C 229.539 398.800,230.864 398.620,231.000 398.400 C 231.136 398.180,232.216 398.000,233.400 398.000 C 234.584 398.000,235.664 397.820,235.800 397.600 C 235.936 397.380,236.937 397.200,238.024 397.200 C 239.111 397.200,240.000 397.020,240.000 396.800 C 240.000 396.580,240.709 396.400,241.576 396.400 C 242.443 396.400,243.264 396.220,243.400 396.000 C 243.536 395.780,244.447 395.600,245.424 395.600 C 246.401 395.600,247.200 395.420,247.200 395.200 C 247.200 394.980,247.920 394.800,248.800 394.800 C 249.680 394.800,250.400 394.640,250.400 394.444 C 250.400 394.248,251.030 393.978,251.800 393.844 C 252.570 393.710,253.830 393.490,254.600 393.356 C 255.370 393.222,256.000 392.952,256.000 392.756 C 256.000 392.560,256.630 392.400,257.400 392.400 C 258.170 392.400,258.800 392.220,258.800 392.000 C 258.800 391.780,259.229 391.600,259.754 391.600 C 260.742 391.600,264.385 390.598,265.817 389.933 C 266.267 389.724,266.897 389.501,267.217 389.437 C 268.086 389.264,269.932 388.562,272.384 387.472 C 273.145 387.133,273.910 386.944,274.084 387.052 C 274.258 387.159,274.400 387.057,274.400 386.824 C 274.400 386.591,274.760 386.400,275.200 386.400 C 275.640 386.400,276.000 386.220,276.000 386.000 C 276.000 385.780,276.450 385.600,277.000 385.600 C 277.550 385.600,278.000 385.420,278.000 385.200 C 278.000 384.980,278.450 384.800,279.000 384.800 C 279.550 384.800,280.000 384.620,280.000 384.400 C 280.000 384.180,280.360 384.000,280.800 384.000 C 281.240 384.000,281.600 383.820,281.600 383.600 C 281.600 383.380,281.872 383.200,282.205 383.200 C 282.793 383.200,283.218 383.033,285.095 382.062 C 285.587 381.808,286.247 381.600,286.561 381.600 C 286.876 381.600,287.193 381.465,287.267 381.300 C 287.340 381.135,288.300 380.552,289.400 380.005 C 290.500 379.458,291.490 378.918,291.600 378.805 C 292.063 378.330,293.634 377.600,294.195 377.600 C 294.528 377.600,294.800 377.420,294.800 377.200 C 294.800 376.980,295.036 376.800,295.325 376.800 C 295.613 376.800,296.236 376.440,296.708 376.000 C 297.180 375.560,297.775 375.200,298.029 375.200 C 298.611 375.200,302.553 373.105,302.733 372.700 C 302.807 372.535,303.044 372.400,303.261 372.400 C 303.478 372.400,304.441 371.860,305.400 371.200 C 306.359 370.540,307.297 370.000,307.484 370.000 C 307.671 370.000,308.083 369.640,308.400 369.200 C 308.717 368.760,309.257 368.400,309.600 368.400 C 309.943 368.400,310.483 368.040,310.800 367.600 C 311.117 367.160,311.657 366.800,312.000 366.800 C 312.343 366.800,312.883 366.440,313.200 366.000 C 313.517 365.560,314.057 365.200,314.400 365.200 C 314.743 365.200,315.283 364.840,315.600 364.400 C 315.917 363.960,316.315 363.600,316.484 363.600 C 316.778 363.600,317.904 362.755,319.016 361.700 C 319.306 361.425,319.753 361.200,320.011 361.200 C 320.268 361.200,320.983 360.660,321.600 360.000 C 322.217 359.340,322.842 358.800,322.989 358.800 C 323.137 358.800,323.503 358.575,323.804 358.300 C 325.563 356.693,327.559 355.122,327.779 355.173 C 327.918 355.205,328.700 354.543,329.516 353.703 C 330.332 352.862,331.630 351.734,332.400 351.197 C 333.170 350.659,335.554 348.415,337.699 346.210 C 342.390 341.385,341.385 342.390,346.210 337.699 C 348.415 335.554,350.659 333.170,351.196 332.400 C 351.733 331.630,352.835 330.336,353.645 329.525 C 354.455 328.714,355.053 327.986,354.975 327.908 C 354.896 327.829,355.545 326.985,356.416 326.032 C 357.287 325.079,358.000 324.041,358.000 323.726 C 358.000 323.411,358.180 323.264,358.400 323.400 C 358.620 323.536,358.800 323.439,358.800 323.184 C 358.800 322.929,359.340 322.217,360.000 321.600 C 360.660 320.983,361.200 320.283,361.200 320.044 C 361.200 319.638,361.928 318.618,363.100 317.384 C 363.375 317.094,363.600 316.704,363.600 316.517 C 363.600 316.330,363.960 315.917,364.400 315.600 C 364.840 315.283,365.200 314.743,365.200 314.400 C 365.200 314.057,365.560 313.517,366.000 313.200 C 366.440 312.883,366.800 312.343,366.800 312.000 C 366.800 311.657,367.160 311.117,367.600 310.800 C 368.040 310.483,368.400 309.969,368.400 309.659 C 368.400 309.348,368.715 308.802,369.100 308.446 C 369.896 307.709,371.141 305.742,371.471 304.700 C 371.593 304.315,371.852 304.000,372.047 304.000 C 372.241 304.000,372.400 303.730,372.400 303.400 C 372.400 303.070,372.580 302.800,372.800 302.800 C 373.020 302.800,373.200 302.440,373.200 302.000 C 373.200 301.560,373.347 301.200,373.526 301.200 C 373.874 301.200,375.200 298.642,375.200 297.970 C 375.200 297.748,375.560 297.180,376.000 296.708 C 376.440 296.236,376.800 295.613,376.800 295.325 C 376.800 295.036,376.980 294.800,377.200 294.800 C 377.420 294.800,377.600 294.440,377.600 294.000 C 377.600 293.560,377.780 293.200,378.000 293.200 C 378.220 293.200,378.400 292.840,378.400 292.400 C 378.400 291.960,378.535 291.599,378.700 291.599 C 378.865 291.598,379.450 290.608,380.000 289.400 C 380.550 288.192,381.135 287.202,381.300 287.201 C 381.465 287.201,381.600 286.928,381.600 286.595 C 381.600 286.262,381.780 285.632,382.000 285.195 C 382.220 284.758,382.580 284.042,382.800 283.605 C 383.020 283.168,383.200 282.538,383.200 282.205 C 383.200 281.872,383.380 281.600,383.600 281.600 C 383.820 281.600,384.000 281.240,384.000 280.800 C 384.000 280.360,384.180 280.000,384.400 280.000 C 384.620 280.000,384.800 279.550,384.800 279.000 C 384.800 278.450,384.980 278.000,385.200 278.000 C 385.420 278.000,385.600 277.550,385.600 277.000 C 385.600 276.450,385.780 276.000,386.000 276.000 C 386.220 276.000,386.400 275.640,386.400 275.200 C 386.400 274.760,386.591 274.400,386.824 274.400 C 387.057 274.400,387.159 274.258,387.052 274.084 C 386.944 273.910,387.133 273.145,387.472 272.384 C 387.810 271.623,388.268 270.550,388.490 270.000 C 388.712 269.450,389.052 268.687,389.247 268.305 C 389.441 267.923,389.600 267.336,389.600 267.000 C 389.600 266.664,389.763 266.077,389.963 265.695 C 390.560 264.553,391.600 260.778,391.600 259.754 C 391.600 259.229,391.780 258.800,392.000 258.800 C 392.220 258.800,392.400 258.170,392.400 257.400 C 392.400 256.630,392.560 256.000,392.756 256.000 C 392.952 256.000,393.227 255.325,393.368 254.500 C 393.990 250.849,394.107 250.400,394.444 250.400 C 394.640 250.400,394.800 249.680,394.800 248.800 C 394.800 247.920,394.980 247.200,395.200 247.200 C 395.420 247.200,395.600 246.491,395.600 245.624 C 395.600 244.757,395.780 243.936,396.000 243.800 C 396.220 243.664,396.400 242.753,396.400 241.776 C 396.400 240.799,396.580 240.000,396.800 240.000 C 397.020 240.000,397.200 239.111,397.200 238.024 C 397.200 236.937,397.380 235.936,397.600 235.800 C 397.820 235.664,398.000 234.584,398.000 233.400 C 398.000 232.216,398.180 231.136,398.400 231.000 C 398.620 230.864,398.800 229.539,398.800 228.056 C 398.800 226.433,398.999 225.161,399.300 224.860 C 399.689 224.471,399.800 218.897,399.800 199.713 C 399.800 180.352,399.693 175.031,399.300 174.900 C 398.965 174.788,398.800 173.829,398.800 171.990 C 398.800 170.482,398.620 169.136,398.400 169.000 C 398.180 168.864,398.000 167.784,398.000 166.600 C 398.000 165.416,397.820 164.336,397.600 164.200 C 397.380 164.064,397.200 163.063,397.200 161.976 C 397.200 160.889,397.020 160.000,396.800 160.000 C 396.580 160.000,396.400 159.201,396.400 158.224 C 396.400 157.247,396.220 156.336,396.000 156.200 C 395.780 156.064,395.600 155.243,395.600 154.376 C 395.600 153.509,395.420 152.800,395.200 152.800 C 394.980 152.800,394.800 152.080,394.800 151.200 C 394.800 150.320,394.640 149.600,394.444 149.600 C 394.248 149.600,393.986 149.015,393.863 148.300 C 392.841 142.392,393.600 142.762,382.763 142.892 L 373.801 143.000 373.533 145.400 C 373.386 146.720,372.967 151.670,372.602 156.400 C 370.433 184.503,371.102 183.559,354.400 182.061 C 345.692 181.281,342.800 181.078,342.800 181.250 C 342.800 181.335,342.975 182.014,343.188 182.758 C 343.563 184.064,343.441 185.330,340.778 207.800 C 340.569 209.560,340.219 212.530,340.000 214.400 C 339.781 216.270,339.415 219.330,339.186 221.200 C 338.958 223.070,338.598 226.085,338.386 227.900 C 338.174 229.715,337.826 232.685,337.614 234.500 C 337.402 236.315,337.036 239.330,336.800 241.200 C 336.564 243.070,336.198 246.085,335.986 247.900 C 335.774 249.715,335.420 252.730,335.200 254.600 C 334.980 256.470,334.620 259.530,334.400 261.400 C 334.001 264.790,333.481 269.111,332.788 274.800 C 332.433 277.719,332.004 281.341,331.214 288.100 C 331.002 289.915,330.636 292.930,330.400 294.800 C 329.856 299.111,329.334 303.565,328.806 308.400 C 328.308 312.956,327.083 315.773,325.025 317.093 C 322.599 318.649,321.371 318.657,309.000 317.200 C 307.240 316.993,304.225 316.638,302.300 316.411 C 300.375 316.185,297.225 315.808,295.300 315.573 C 293.375 315.338,290.450 314.992,288.800 314.804 C 287.150 314.616,284.270 314.267,282.400 314.027 C 280.530 313.788,277.470 313.421,275.600 313.211 C 273.730 313.000,270.670 312.642,268.800 312.414 C 266.930 312.185,263.870 311.819,262.000 311.600 C 255.052 310.785,251.920 310.411,240.200 308.997 C 233.600 308.201,226.400 307.388,224.200 307.191 C 222.000 306.994,219.021 306.652,217.580 306.430 C 216.140 306.208,213.350 305.840,211.380 305.614 C 209.411 305.387,206.270 305.015,204.400 304.786 C 202.530 304.558,199.392 304.196,197.427 303.981 C 187.869 302.938,185.788 300.117,187.168 290.077 C 187.521 287.509,187.888 284.583,188.783 277.200 C 189.200 273.767,191.980 250.214,193.600 236.400 C 193.819 234.530,194.185 231.470,194.414 229.600 C 194.642 227.730,195.002 224.715,195.214 222.900 C 195.426 221.085,195.780 218.070,196.000 216.200 C 196.220 214.330,196.585 211.225,196.811 209.300 C 197.038 207.375,197.388 204.450,197.589 202.800 C 198.611 194.424,198.920 191.713,198.958 190.800 L 199.000 189.800 192.000 189.597 C 183.577 189.354,181.916 188.645,180.212 184.568 C 179.324 182.442,179.277 54.071,180.164 51.949 C 182.388 46.627,181.310 46.800,212.172 46.800 C 227.511 46.800,238.446 46.649,238.578 46.435 C 238.702 46.235,238.900 44.390,239.017 42.335 C 239.598 32.143,242.034 29.806,251.090 30.752 C 253.460 31.000,255.805 31.202,256.300 31.201 L 257.200 31.200 257.200 19.689 C 257.200 7.000,257.160 6.800,254.595 6.800 C 254.048 6.800,253.600 6.620,253.600 6.400 C 253.600 6.180,252.880 6.000,252.000 6.000 C 251.120 6.000,250.400 5.820,250.400 5.600 C 250.400 5.380,249.680 5.200,248.800 5.200 C 247.920 5.200,247.200 5.020,247.200 4.800 C 247.200 4.580,246.491 4.400,245.624 4.400 C 244.757 4.400,243.936 4.220,243.800 4.000 C 243.664 3.780,242.764 3.600,241.800 3.600 C 240.836 3.600,239.936 3.420,239.800 3.200 C 239.664 2.980,238.653 2.800,237.553 2.800 C 236.321 2.800,235.648 2.646,235.800 2.400 C 235.954 2.150,235.145 2.000,233.647 2.000 C 232.327 2.000,231.136 1.820,231.000 1.600 C 230.864 1.380,229.518 1.200,228.010 1.200 C 226.193 1.200,225.211 1.034,225.103 0.708 C 224.941 0.222,187.291 -0.126,178.300 0.275 M20.177 110.300 C 20.028 110.795,19.748 111.200,19.553 111.200 C 19.359 111.200,19.200 111.560,19.200 112.000 C 19.200 112.440,19.020 112.800,18.800 112.800 C 18.580 112.800,18.400 113.065,18.400 113.388 C 18.400 113.711,18.040 114.617,17.600 115.400 C 17.160 116.183,16.800 117.179,16.800 117.612 C 16.800 118.045,16.620 118.400,16.400 118.400 C 16.180 118.400,16.000 118.749,16.000 119.176 C 16.000 119.603,15.820 120.064,15.600 120.200 C 15.380 120.336,15.200 120.807,15.200 121.247 C 15.200 121.687,15.020 121.936,14.800 121.800 C 14.567 121.656,14.400 122.063,14.400 122.776 C 14.400 123.449,14.220 124.000,14.000 124.000 C 13.780 124.000,13.600 124.360,13.600 124.800 C 13.600 125.240,13.459 125.600,13.287 125.600 C 13.115 125.600,12.934 126.095,12.884 126.700 C 12.834 127.305,12.615 127.860,12.397 127.933 C 12.178 128.007,12.000 128.324,12.000 128.639 C 12.000 128.953,11.833 129.523,11.629 129.905 C 11.146 130.811,10.717 132.009,10.532 132.969 C 10.451 133.391,10.186 133.976,9.943 134.269 C 9.701 134.561,9.600 134.800,9.721 134.800 C 9.841 134.800,9.593 135.786,9.170 136.990 C 8.746 138.195,8.400 139.635,8.400 140.190 C 8.400 140.746,8.220 141.200,8.000 141.200 C 7.780 141.200,7.600 141.830,7.600 142.600 C 7.600 143.370,7.420 144.000,7.200 144.000 C 6.980 144.000,6.800 144.540,6.800 145.200 C 6.800 145.860,6.620 146.400,6.400 146.400 C 6.180 146.400,6.000 147.120,6.000 148.000 C 6.000 148.880,5.820 149.600,5.600 149.600 C 5.380 149.600,5.200 150.309,5.200 151.176 C 5.200 152.043,5.020 152.864,4.800 153.000 C 4.580 153.136,4.400 153.856,4.400 154.600 C 4.400 155.344,4.220 156.064,4.000 156.200 C 3.780 156.336,3.600 157.247,3.600 158.224 C 3.600 159.201,3.420 160.000,3.200 160.000 C 2.980 160.000,2.800 161.001,2.800 162.224 C 2.800 163.604,2.648 164.353,2.400 164.200 C 2.150 164.046,2.000 164.855,2.000 166.353 C 2.000 167.673,1.820 168.864,1.600 169.000 C 1.380 169.136,1.200 170.371,1.200 171.744 C 1.200 173.117,1.031 174.411,0.825 174.620 C 0.425 175.026,-0.274 190.800,0.108 190.800 C 0.233 190.800,0.725 190.168,1.202 189.396 C 2.197 187.787,4.592 186.301,7.200 185.675 C 11.285 184.696,15.934 183.619,18.000 183.173 C 19.210 182.913,20.425 182.638,20.700 182.562 C 21.295 182.399,21.389 111.562,20.795 110.200 C 20.457 109.423,20.439 109.426,20.177 110.300 M0.097 210.625 C 0.250 220.551,0.453 225.018,0.759 225.120 C 1.024 225.208,1.200 226.372,1.200 228.033 C 1.200 229.611,1.372 230.800,1.600 230.800 C 1.822 230.800,2.000 231.859,2.000 233.176 C 2.000 234.483,2.180 235.664,2.400 235.800 C 2.620 235.936,2.800 236.937,2.800 238.024 C 2.800 239.111,2.980 240.000,3.200 240.000 C 3.420 240.000,3.600 240.900,3.600 242.000 C 3.600 243.100,3.780 244.000,4.000 244.000 C 4.220 244.000,4.400 244.720,4.400 245.600 C 4.400 246.480,4.580 247.200,4.800 247.200 C 5.020 247.200,5.200 247.920,5.200 248.800 C 5.200 249.680,5.380 250.400,5.600 250.400 C 5.820 250.400,6.000 251.019,6.000 251.776 C 6.000 252.533,6.180 253.264,6.400 253.400 C 6.620 253.536,6.800 254.177,6.800 254.824 C 6.800 255.471,6.980 256.000,7.200 256.000 C 7.420 256.000,7.600 256.630,7.600 257.400 C 7.600 258.170,7.780 258.800,8.000 258.800 C 8.220 258.800,8.400 259.229,8.400 259.754 C 8.400 260.645,9.285 263.982,10.003 265.800 C 10.177 266.240,10.536 267.230,10.800 268.000 C 11.382 269.693,11.971 271.160,12.447 272.095 C 12.641 272.477,12.800 273.152,12.800 273.595 C 12.800 274.038,12.980 274.400,13.200 274.400 C 13.420 274.400,13.600 274.760,13.600 275.200 C 13.600 275.640,13.780 276.000,14.000 276.000 C 14.220 276.000,14.400 276.450,14.400 277.000 C 14.400 277.550,14.580 278.000,14.800 278.000 C 15.020 278.000,15.200 278.450,15.200 279.000 C 15.200 279.550,15.380 280.000,15.600 280.000 C 15.820 280.000,16.000 280.360,16.000 280.800 C 16.000 281.240,16.180 281.600,16.400 281.600 C 16.620 281.600,16.800 281.872,16.800 282.205 C 16.800 282.538,16.962 283.123,17.159 283.505 C 17.357 283.887,18.299 285.820,19.253 287.800 C 22.218 293.952,22.950 294.076,21.602 288.200 C 21.400 287.320,20.957 285.385,20.618 283.900 C 20.278 282.415,19.722 279.985,19.382 278.500 C 19.043 277.015,18.603 275.080,18.404 274.200 C 18.206 273.320,17.664 270.980,17.200 269.000 C 16.736 267.020,16.175 264.590,15.953 263.600 C 15.731 262.610,15.392 261.170,15.200 260.400 C 15.008 259.630,14.667 258.190,14.443 257.200 C 14.219 256.210,13.746 254.140,13.392 252.600 C 13.039 251.060,12.502 248.720,12.200 247.400 C 11.898 246.080,11.376 243.830,11.040 242.400 C 10.705 240.970,9.343 235.030,8.015 229.200 C 6.687 223.370,5.430 217.880,5.222 217.000 C 4.020 211.916,3.190 208.342,2.761 206.400 C 2.493 205.190,1.942 202.898,1.537 201.307 C 1.132 199.716,0.800 198.062,0.800 197.631 C 0.800 197.200,0.592 196.719,0.339 196.562 C -0.008 196.348,-0.068 199.845,0.097 210.625 " stroke="none" fill="#2b48bc" fill-rule="evenodd"></path><path id="path1" d="M25.600 46.794 C 25.600 47.017,25.324 47.200,24.987 47.200 C 24.191 47.200,21.600 49.791,21.600 50.587 C 21.600 50.924,21.402 51.200,21.161 51.200 C 20.843 51.200,20.803 69.250,21.018 116.791 C 21.271 172.704,21.233 182.405,20.757 182.540 C 20.451 182.628,19.210 182.913,18.000 183.173 C 15.934 183.619,11.285 184.696,7.200 185.675 C 1.647 187.007,-1.784 192.536,0.357 196.705 C 0.668 197.311,1.082 198.992,2.796 206.600 C 3.129 208.078,4.322 213.195,5.222 217.000 C 5.430 217.880,6.687 223.370,8.015 229.200 C 9.343 235.030,10.693 240.925,11.015 242.300 C 11.968 246.374,13.414 252.657,14.443 257.200 C 14.667 258.190,15.008 259.630,15.200 260.400 C 15.392 261.170,15.731 262.610,15.953 263.600 C 16.175 264.590,16.736 267.020,17.200 269.000 C 17.664 270.980,18.206 273.320,18.404 274.200 C 18.603 275.080,19.043 277.015,19.382 278.500 C 19.722 279.985,20.278 282.415,20.618 283.900 C 20.957 285.385,21.400 287.320,21.602 288.200 C 22.424 291.784,22.476 292.400,21.952 292.400 C 21.554 292.400,21.547 292.507,21.920 292.880 C 22.184 293.144,22.400 294.044,22.400 294.880 C 22.400 295.716,22.580 296.400,22.800 296.400 C 23.020 296.400,23.200 297.210,23.200 298.200 C 23.200 299.190,23.380 300.000,23.600 300.000 C 23.820 300.000,24.000 300.810,24.000 301.800 C 24.000 302.790,24.144 303.600,24.321 303.600 C 24.497 303.600,24.843 304.905,25.090 306.500 C 25.337 308.095,25.744 310.300,25.995 311.400 C 26.246 312.500,26.549 314.076,26.668 314.903 C 26.787 315.729,27.045 316.505,27.242 316.626 C 27.439 316.748,27.600 317.557,27.600 318.424 C 27.600 319.291,27.780 320.000,28.000 320.000 C 28.220 320.000,28.400 320.352,28.400 320.783 C 28.400 321.946,31.257 324.751,32.744 325.049 C 33.444 325.189,34.114 325.460,34.232 325.652 C 34.511 326.104,37.892 326.107,38.067 325.655 C 38.591 324.299,44.000 325.245,44.000 326.693 C 44.000 326.913,44.990 328.123,46.200 329.382 C 47.410 330.642,48.400 331.834,48.400 332.032 C 48.400 332.230,50.488 334.445,53.041 336.955 C 55.594 339.464,57.889 341.727,58.141 341.983 C 65.029 348.966,67.732 351.600,68.008 351.600 C 68.194 351.600,69.271 352.500,70.400 353.600 C 71.529 354.700,72.602 355.600,72.784 355.600 C 72.966 355.600,73.695 356.118,74.404 356.751 C 76.327 358.469,76.744 358.800,76.987 358.800 C 77.108 358.800,77.772 359.340,78.463 360.000 C 79.154 360.660,79.874 361.200,80.063 361.200 C 80.252 361.200,80.972 361.740,81.663 362.400 C 82.354 363.060,83.122 363.600,83.371 363.600 C 83.620 363.600,84.083 363.960,84.400 364.400 C 84.717 364.840,85.257 365.200,85.600 365.200 C 85.943 365.200,86.483 365.560,86.800 366.000 C 87.117 366.440,87.657 366.800,88.000 366.800 C 88.343 366.800,88.883 367.160,89.200 367.600 C 89.517 368.040,90.057 368.400,90.400 368.400 C 90.743 368.400,91.283 368.760,91.600 369.200 C 91.917 369.640,92.329 370.000,92.516 370.000 C 92.703 370.000,93.641 370.540,94.600 371.200 C 95.559 371.860,96.522 372.400,96.739 372.400 C 96.956 372.400,97.193 372.557,97.267 372.749 C 97.422 373.157,101.371 375.200,102.003 375.200 C 102.240 375.200,102.820 375.560,103.292 376.000 C 103.764 376.440,104.387 376.800,104.675 376.800 C 104.964 376.800,105.200 376.980,105.200 377.200 C 105.200 377.420,105.560 377.600,106.000 377.600 C 106.440 377.600,106.800 377.780,106.800 378.000 C 106.800 378.220,107.160 378.400,107.600 378.400 C 108.040 378.400,108.400 378.580,108.400 378.800 C 108.400 379.020,108.760 379.200,109.200 379.200 C 109.640 379.200,110.000 379.346,110.000 379.525 C 110.000 379.704,110.630 380.098,111.400 380.400 C 112.170 380.702,112.800 381.096,112.800 381.275 C 112.800 381.454,113.072 381.600,113.405 381.600 C 113.738 381.600,114.368 381.780,114.805 382.000 C 115.242 382.220,115.958 382.580,116.395 382.800 C 116.832 383.020,117.462 383.200,117.795 383.200 C 118.128 383.200,118.400 383.380,118.400 383.600 C 118.400 383.820,118.760 384.000,119.200 384.000 C 119.640 384.000,120.000 384.180,120.000 384.400 C 120.000 384.620,120.349 384.800,120.776 384.800 C 121.203 384.800,121.664 384.980,121.800 385.200 C 121.936 385.420,122.487 385.600,123.024 385.600 C 123.561 385.600,124.000 385.780,124.000 386.000 C 124.000 386.220,124.360 386.400,124.800 386.400 C 125.240 386.400,125.600 386.580,125.600 386.800 C 125.600 387.020,125.962 387.200,126.405 387.200 C 126.848 387.200,127.523 387.359,127.905 387.553 C 128.287 387.748,129.140 388.129,129.800 388.400 C 130.460 388.671,131.313 389.052,131.695 389.247 C 132.077 389.441,132.664 389.600,133.000 389.600 C 133.336 389.600,133.923 389.763,134.305 389.963 C 135.447 390.560,139.222 391.600,140.246 391.600 C 140.771 391.600,141.200 391.780,141.200 392.000 C 141.200 392.220,141.830 392.400,142.600 392.400 C 143.370 392.400,144.000 392.580,144.000 392.800 C 144.000 393.020,144.529 393.200,145.176 393.200 C 145.823 393.200,146.464 393.380,146.600 393.600 C 146.736 393.820,147.467 394.000,148.224 394.000 C 148.981 394.000,149.600 394.180,149.600 394.400 C 149.600 394.620,150.320 394.800,151.200 394.800 C 152.080 394.800,152.800 394.980,152.800 395.200 C 152.800 395.420,153.509 395.600,154.376 395.600 C 155.243 395.600,156.064 395.780,156.200 396.000 C 156.336 396.220,157.247 396.400,158.224 396.400 C 159.201 396.400,160.000 396.580,160.000 396.800 C 160.000 397.020,160.900 397.200,162.000 397.200 L 164.000 397.200 164.000 354.049 C 164.000 306.630,164.147 309.430,161.531 306.925 C 159.354 304.839,159.030 304.800,143.474 304.794 C 134.820 304.790,128.759 304.632,128.400 304.400 C 127.916 304.087,127.975 304.011,128.707 304.006 C 129.206 304.003,130.916 303.668,132.507 303.263 C 134.098 302.858,136.390 302.307,137.600 302.039 C 138.810 301.772,141.330 301.193,143.200 300.754 C 145.070 300.316,147.320 299.796,148.200 299.600 C 149.711 299.264,153.004 298.494,159.400 296.981 C 166.421 295.321,169.121 291.730,167.617 286.046 C 167.239 284.616,165.890 278.899,165.200 275.800 C 165.004 274.920,164.482 272.670,164.039 270.800 C 163.597 268.930,162.867 265.780,162.419 263.800 C 161.970 261.820,161.162 258.310,160.623 256.000 C 160.084 253.690,159.174 249.730,158.600 247.200 C 158.026 244.670,157.116 240.710,156.577 238.400 C 156.038 236.090,155.230 232.580,154.781 230.600 C 154.333 228.620,153.603 225.470,153.161 223.600 C 152.718 221.730,152.196 219.480,152.000 218.600 C 151.804 217.720,151.264 215.380,150.800 213.400 C 150.336 211.420,149.796 209.080,149.600 208.200 C 149.404 207.320,148.864 204.980,148.400 203.000 C 147.936 201.020,147.394 198.680,147.196 197.800 C 146.997 196.920,146.557 195.018,146.218 193.574 C 145.220 189.333,144.704 189.687,152.100 189.534 C 159.639 189.379,160.523 189.070,162.700 185.839 L 164.000 183.910 164.000 118.200 L 164.000 52.490 162.700 50.566 C 161.842 49.296,160.788 48.345,159.600 47.771 L 157.800 46.902 91.700 46.645 C 47.120 46.472,25.600 46.521,25.600 46.794 M126.395 74.644 C 130.983 77.680,130.990 83.915,126.409 86.947 L 124.817 88.000 88.421 88.000 C 46.559 88.000,49.490 88.287,47.529 84.000 C 46.444 81.627,46.310 80.788,46.804 79.471 C 49.193 73.102,45.217 73.662,88.309 73.628 L 124.817 73.600 126.395 74.644 M126.266 105.817 C 131.118 108.661,130.916 116.087,125.920 118.580 C 123.695 119.690,52.558 119.500,50.563 118.379 C 48.863 117.424,48.000 116.633,48.000 116.029 C 48.000 115.793,47.820 115.600,47.600 115.600 C 47.380 115.600,47.200 115.228,47.200 114.774 C 47.200 114.319,47.000 113.573,46.755 113.116 C 45.791 111.315,48.078 106.859,50.600 105.624 C 52.152 104.863,53.281 104.839,88.365 104.820 L 124.530 104.800 126.266 105.817 M87.959 136.941 C 89.680 137.879,91.200 139.388,91.200 140.158 C 91.200 140.485,91.380 140.864,91.600 141.000 C 93.602 142.237,91.072 148.018,87.705 149.900 C 85.900 150.909,52.111 150.587,50.400 149.544 C 45.046 146.281,45.635 138.648,51.400 136.586 C 54.100 135.621,86.107 135.931,87.959 136.941 M85.200 193.358 C 109.767 198.634,114.900 232.029,92.859 243.178 L 91.118 244.058 91.386 245.929 C 91.533 246.958,92.182 250.472,92.827 253.737 C 94.236 260.868,94.296 262.827,93.161 264.662 C 90.144 269.545,82.000 266.920,82.000 261.064 C 82.000 260.544,81.841 259.598,81.646 258.960 C 81.452 258.322,81.083 256.540,80.826 255.000 C 80.569 253.460,80.200 251.480,80.006 250.600 C 79.812 249.720,79.447 247.830,79.194 246.400 C 78.941 244.970,78.538 242.954,78.297 241.920 C 77.361 237.901,79.217 235.468,84.570 233.696 C 98.587 229.057,98.230 209.674,84.047 205.369 C 74.376 202.434,65.600 209.663,65.600 220.565 C 65.600 226.225,64.878 227.846,61.838 229.007 C 55.845 231.295,52.170 225.310,53.730 215.800 C 56.255 200.400,70.544 190.211,85.200 193.358 M96.136 275.923 C 100.035 279.620,98.662 285.534,93.524 287.175 C 90.488 288.145,86.585 285.845,85.581 282.495 C 83.799 276.547,91.642 271.663,96.136 275.923 " stroke="none" fill="#fb488a" fill-rule="evenodd"></path><path id="path2" d="M50.454 74.446 C 48.425 75.636,48.048 76.154,46.804 79.471 C 45.879 81.935,47.634 85.534,50.563 87.179 C 52.007 87.990,52.455 88.000,88.421 88.000 L 124.817 88.000 126.409 86.947 C 130.990 83.915,130.983 77.680,126.395 74.644 L 124.817 73.600 88.309 73.628 C 52.712 73.656,51.766 73.676,50.454 74.446 M50.600 105.624 C 48.078 106.859,45.791 111.315,46.755 113.116 C 47.000 113.573,47.200 114.319,47.200 114.774 C 47.200 115.228,47.380 115.600,47.600 115.600 C 47.820 115.600,48.000 115.793,48.000 116.029 C 48.000 116.633,48.863 117.424,50.563 118.379 C 52.558 119.500,123.695 119.690,125.920 118.580 C 130.916 116.087,131.118 108.661,126.266 105.817 L 124.530 104.800 88.365 104.820 C 53.281 104.839,52.152 104.863,50.600 105.624 M51.400 136.586 C 45.635 138.648,45.046 146.281,50.400 149.544 C 52.111 150.587,85.900 150.909,87.705 149.900 C 91.072 148.018,93.602 142.237,91.600 141.000 C 91.380 140.864,91.200 140.485,91.200 140.158 C 91.200 139.388,89.680 137.879,87.959 136.941 C 86.107 135.931,54.100 135.621,51.400 136.586 M207.400 162.466 C 202.688 164.179,202.570 164.562,200.204 185.905 C 199.815 189.415,200.292 189.189,193.057 189.289 L 186.600 189.378 192.954 189.500 L 199.309 189.621 199.040 191.710 C 198.893 192.860,198.605 195.240,198.400 197.000 C 198.196 198.760,197.836 201.730,197.600 203.600 C 197.364 205.470,196.998 208.485,196.786 210.300 C 196.574 212.115,196.226 215.085,196.014 216.900 C 195.802 218.715,195.442 221.730,195.215 223.600 C 194.719 227.674,194.468 229.786,192.600 245.600 C 191.807 252.310,190.988 259.240,190.779 261.000 C 190.570 262.760,190.219 265.730,190.000 267.600 C 189.781 269.470,189.415 272.530,189.186 274.400 C 188.958 276.270,188.592 279.330,188.374 281.200 C 188.156 283.070,187.799 286.040,187.581 287.800 C 186.525 296.318,186.576 297.601,188.056 299.776 C 190.341 303.134,190.052 303.059,208.800 305.215 C 210.890 305.456,214.400 305.907,216.600 306.218 C 218.800 306.529,222.471 306.968,224.757 307.193 C 228.456 307.558,240.729 308.972,249.300 310.021 C 255.386 310.765,259.049 311.207,262.400 311.600 C 264.270 311.819,267.330 312.185,269.200 312.414 C 271.070 312.642,274.130 313.000,276.000 313.211 C 277.870 313.421,280.930 313.781,282.800 314.011 C 284.670 314.241,287.640 314.596,289.400 314.800 C 291.160 315.004,294.130 315.365,296.000 315.603 C 297.870 315.840,300.930 316.207,302.800 316.419 C 304.670 316.630,307.550 316.966,309.200 317.166 C 322.369 318.762,323.244 318.714,325.798 316.257 C 328.087 314.056,328.066 314.141,329.614 300.900 C 329.826 299.085,330.180 296.070,330.400 294.200 C 330.620 292.330,330.974 289.315,331.186 287.500 C 331.398 285.685,331.764 282.670,332.000 280.800 C 332.236 278.930,332.602 275.915,332.814 274.100 C 333.192 270.871,333.678 266.818,334.412 260.800 C 334.613 259.150,334.962 256.225,335.189 254.300 C 335.415 252.375,335.780 249.270,336.000 247.400 C 336.220 245.530,336.574 242.515,336.786 240.700 C 336.998 238.885,337.358 235.870,337.586 234.000 C 337.815 232.130,338.181 229.070,338.402 227.200 C 338.622 225.330,339.857 214.912,341.145 204.049 C 342.955 188.797,343.402 183.956,343.108 182.798 L 342.728 181.298 338.464 180.862 C 336.119 180.622,332.850 180.319,331.200 180.189 C 329.550 180.060,326.130 179.784,323.600 179.576 C 321.070 179.368,316.750 179.019,314.000 178.800 C 311.250 178.581,306.840 178.221,304.200 178.000 C 301.560 177.779,297.150 177.422,294.400 177.207 C 291.650 176.992,284.990 176.459,279.600 176.021 C 274.210 175.584,267.460 175.044,264.600 174.822 C 261.740 174.600,256.250 174.151,252.400 173.824 C 248.550 173.497,243.088 173.043,240.261 172.816 C 232.724 172.210,230.353 170.828,229.153 166.340 C 228.598 164.266,229.215 164.487,221.400 163.558 C 219.640 163.349,216.760 163.001,215.000 162.785 C 213.240 162.570,211.080 162.311,210.200 162.211 C 209.320 162.111,208.060 162.226,207.400 162.466 M74.800 193.388 C 63.309 196.029,55.633 204.194,53.730 215.800 C 52.170 225.310,55.845 231.295,61.838 229.007 C 64.878 227.846,65.600 226.225,65.600 220.565 C 65.600 209.663,74.376 202.434,84.047 205.369 C 98.230 209.674,98.587 229.057,84.570 233.696 C 79.217 235.468,77.361 237.901,78.297 241.920 C 78.538 242.954,78.941 244.970,79.194 246.400 C 79.447 247.830,79.812 249.720,80.006 250.600 C 80.200 251.480,80.569 253.460,80.826 255.000 C 81.083 256.540,81.452 258.322,81.646 258.960 C 81.841 259.598,82.000 260.544,82.000 261.064 C 82.000 266.920,90.144 269.545,93.161 264.662 C 94.296 262.827,94.236 260.868,92.827 253.737 C 92.182 250.472,91.533 246.958,91.386 245.929 L 91.118 244.058 92.859 243.178 C 100.084 239.523,105.597 231.401,106.777 222.674 C 109.138 205.203,91.936 189.448,74.800 193.388 M230.400 204.201 C 232.050 204.324,235.560 204.602,238.200 204.819 C 240.840 205.036,248.612 205.657,255.471 206.200 C 262.330 206.743,271.150 207.455,275.071 207.781 C 278.992 208.108,284.810 208.573,288.000 208.814 C 298.237 209.589,301.600 211.676,301.600 217.253 C 301.600 223.106,297.520 225.572,289.056 224.832 C 283.738 224.367,278.852 223.960,269.400 223.195 C 266.540 222.963,262.220 222.606,259.800 222.401 C 255.658 222.050,253.308 221.860,240.000 220.801 C 237.030 220.564,232.800 220.204,230.600 220.000 C 228.400 219.796,225.412 219.522,223.960 219.389 C 219.028 218.941,215.197 213.270,217.139 209.295 C 218.412 206.691,218.910 206.059,220.606 204.894 C 222.365 203.687,222.691 203.603,224.954 203.783 C 226.299 203.891,228.750 204.079,230.400 204.201 M231.000 235.598 C 258.057 237.770,256.840 237.573,259.088 240.134 C 262.618 244.154,261.382 250.107,256.545 252.386 C 254.349 253.420,255.220 253.449,233.600 251.632 C 231.070 251.419,227.380 251.125,225.400 250.979 C 218.829 250.495,216.450 249.333,215.021 245.913 C 213.428 242.098,215.192 237.282,218.856 235.444 C 219.856 234.943,223.398 234.988,231.000 235.598 M90.282 274.519 C 86.859 275.351,84.593 279.196,85.581 282.495 C 86.988 287.189,92.648 288.882,96.136 285.652 C 101.190 280.971,96.945 272.899,90.282 274.519 " stroke="none" fill="#fbcd70" fill-rule="evenodd"></path><path id="path3" d="M260.600 0.379 C 259.548 0.812,257.600 3.030,257.600 3.797 C 257.600 4.128,257.465 4.400,257.300 4.400 C 257.135 4.400,257.065 10.430,257.143 17.800 L 257.287 31.200 256.343 31.201 C 255.825 31.202,253.460 31.000,251.090 30.752 C 242.703 29.876,239.200 32.668,239.200 40.229 C 239.200 41.449,239.034 43.651,238.830 45.123 C 238.627 46.596,238.262 50.230,238.019 53.200 C 237.776 56.170,237.411 60.580,237.208 63.000 C 237.005 65.420,236.644 69.830,236.406 72.800 C 236.168 75.770,235.800 80.315,235.587 82.900 C 234.783 92.663,234.061 101.539,233.203 112.200 C 232.972 115.060,232.611 119.470,232.400 122.000 C 232.189 124.530,231.829 128.940,231.600 131.800 C 231.371 134.660,231.014 139.070,230.806 141.600 C 230.598 144.130,230.230 148.630,229.988 151.600 C 229.747 154.570,229.372 158.860,229.154 161.132 C 228.342 169.625,230.641 172.043,240.261 172.816 C 243.088 173.043,248.550 173.497,252.400 173.824 C 256.250 174.151,261.740 174.600,264.600 174.822 C 267.460 175.044,274.210 175.584,279.600 176.021 C 284.990 176.459,291.650 176.992,294.400 177.207 C 297.150 177.422,301.560 177.779,304.200 178.000 C 306.840 178.221,311.250 178.581,314.000 178.800 C 316.750 179.019,321.160 179.379,323.800 179.600 C 334.855 180.528,338.863 180.849,343.600 181.185 C 346.350 181.380,351.210 181.774,354.400 182.061 C 371.101 183.560,370.433 184.503,372.602 156.400 C 372.967 151.670,373.387 146.720,373.535 145.400 L 373.805 143.000 384.702 143.011 C 390.696 143.018,395.600 142.883,395.600 142.711 C 395.600 142.540,395.882 142.400,396.227 142.400 C 396.571 142.400,397.516 141.775,398.327 141.010 L 399.800 139.620 399.903 71.603 L 400.007 3.586 398.214 1.793 L 396.421 0.000 328.911 0.025 C 291.780 0.039,261.040 0.199,260.600 0.379 " stroke="none" fill="#04d98b" fill-rule="evenodd"></path><path id="path4" d="M185.204 47.325 C 183.178 47.972,180.651 50.669,180.062 52.813 C 179.681 54.199,179.596 69.056,179.685 119.000 C 179.815 191.842,179.487 184.962,182.964 187.779 L 184.472 189.000 191.897 189.125 C 200.281 189.267,199.837 189.434,200.199 186.003 C 201.390 174.722,202.477 167.011,203.027 165.947 C 204.218 163.645,208.101 161.689,210.530 162.169 C 211.229 162.307,213.240 162.590,215.000 162.798 C 223.194 163.769,224.736 163.957,226.672 164.222 L 228.744 164.505 228.978 163.152 C 229.107 162.409,229.397 159.370,229.622 156.400 C 229.848 153.430,230.205 148.930,230.417 146.400 C 230.629 143.870,230.989 139.460,231.217 136.600 C 231.445 133.740,231.801 129.330,232.008 126.800 C 232.215 124.270,232.575 119.860,232.808 117.000 C 233.040 114.140,233.408 109.640,233.624 107.000 C 233.841 104.360,234.190 100.040,234.400 97.400 C 234.610 94.760,234.970 90.350,235.200 87.600 C 235.430 84.850,235.790 80.440,236.000 77.800 C 236.629 69.893,237.138 63.730,237.670 57.600 C 237.946 54.410,238.179 50.720,238.186 49.400 L 238.200 47.000 212.400 46.939 C 194.370 46.897,186.180 47.013,185.204 47.325 M220.606 204.894 C 218.910 206.059,218.412 206.691,217.139 209.295 C 215.197 213.270,219.028 218.941,223.960 219.389 C 225.412 219.522,228.400 219.796,230.600 220.000 C 232.800 220.204,237.030 220.564,240.000 220.801 C 253.308 221.860,255.658 222.050,259.800 222.401 C 262.220 222.606,266.540 222.963,269.400 223.195 C 278.852 223.960,283.738 224.367,289.056 224.832 C 297.520 225.572,301.600 223.106,301.600 217.253 C 301.600 211.676,298.237 209.589,288.000 208.814 C 284.810 208.573,278.992 208.108,275.071 207.781 C 271.150 207.455,262.330 206.743,255.471 206.200 C 248.612 205.657,240.840 205.036,238.200 204.819 C 235.560 204.602,232.050 204.324,230.400 204.201 C 228.750 204.079,226.299 203.891,224.954 203.783 C 222.691 203.603,222.365 203.687,220.606 204.894 M218.856 235.444 C 215.192 237.282,213.428 242.098,215.021 245.913 C 216.450 249.333,218.829 250.495,225.400 250.979 C 227.380 251.125,231.070 251.419,233.600 251.632 C 255.220 253.449,254.349 253.420,256.545 252.386 C 261.382 250.107,262.618 244.154,259.088 240.134 C 256.840 237.573,258.057 237.770,231.000 235.598 C 223.398 234.988,219.856 234.943,218.856 235.444 " stroke="none" fill="#fbaa07" fill-rule="evenodd"></path></g></svg>