<?xml version="1.0" standalone="no"?>
<!DOCTYPE svg PUBLIC "-//W3C//DTD SVG 20010904//EN"
 "http://www.w3.org/TR/2001/REC-SVG-20010904/DTD/svg10.dtd">
<svg version="1.0" xmlns="http://www.w3.org/2000/svg"
 width="512.000000pt" height="512.000000pt" viewBox="0 0 512.000000 512.000000"
 preserveAspectRatio="xMidYMid meet">

<g transform="translate(0.000000,512.000000) scale(0.100000,-0.100000)"
fill="#FFFF" stroke="none">
<path d="M2124 5102 c-75 -27 -128 -73 -163 -144 -26 -52 -31 -73 -31 -135 l0
-73 -187 0 c-104 0 -205 -5 -226 -11 -94 -26 -141 -114 -125 -232 22 -165 156
-300 324 -327 32 -6 259 -10 504 -10 245 0 472 4 504 10 125 20 237 104 292
217 25 51 29 70 29 149 0 84 -2 93 -28 127 -51 68 -67 72 -299 75 l-208 3 0
72 c0 86 -28 154 -85 212 -76 75 -201 103 -301 67z m170 -161 c41 -23 66 -76
66 -138 l0 -53 -140 0 -140 0 0 50 c0 55 18 107 43 129 27 21 90 40 117 34 14
-3 38 -13 54 -22z m604 -385 c5 -37 -23 -108 -56 -148 -14 -17 -49 -41 -77
-54 l-50 -24 -489 0 c-337 0 -500 4 -527 11 -55 17 -108 65 -135 123 -23 49
-31 106 -17 119 3 4 308 6 677 5 l671 -3 3 -29z"/>
<path d="M554 4634 c-60 -21 -119 -77 -151 -142 l-28 -57 0 -2110 0 -2110 28
-57 c30 -61 64 -95 131 -131 l41 -22 1645 0 1645 0 53 29 c57 32 102 81 130
143 15 33 17 71 17 271 0 234 0 234 -24 253 -28 23 -69 25 -98 4 -21 -14 -21
-23 -25 -239 -3 -210 -4 -226 -24 -253 -49 -65 -35 -63 -528 -61 l-447 3 153
162 153 161 188 1 c235 1 272 13 318 103 18 35 19 65 19 483 l0 445 83 163 82
162 3 -437 2 -437 27 -21 c31 -24 66 -20 98 11 19 19 20 36 25 612 l5 592 188
373 c103 204 190 372 193 372 2 0 31 -13 63 -29 41 -21 62 -39 70 -60 16 -36
13 -42 -80 -163 -97 -127 -163 -237 -264 -438 -89 -177 -92 -192 -57 -232 18
-21 71 -24 94 -6 8 7 57 94 107 192 103 200 150 277 256 416 93 123 99 133 99
205 -1 101 -38 154 -151 217 l-72 40 68 132 c80 153 88 184 67 245 l-15 44 45
88 c49 98 53 132 24 188 -16 32 -35 47 -109 85 -152 78 -204 62 -283 -89 -40
-78 -50 -91 -79 -98 -55 -14 -85 -43 -126 -122 l-38 -75 -5 498 -5 498 -30 59
c-34 66 -101 125 -165 144 -24 7 -135 11 -304 11 -253 0 -267 -1 -286 -20 -30
-30 -27 -83 6 -109 24 -19 40 -21 170 -21 l144 0 0 -1001 0 -1000 -441 -872
c-280 -554 -447 -894 -457 -934 l-17 -63 -907 0 c-498 0 -913 3 -922 6 -15 6
-16 185 -16 1935 l0 1929 144 0 c130 0 146 2 170 21 34 27 36 77 3 107 -23 22
-29 22 -293 21 -209 0 -278 -4 -310 -15z m138 -2087 l3 -1954 28 -36 c16 -21
46 -46 67 -57 38 -20 60 -20 955 -20 725 0 915 -3 915 -12 0 -14 -37 -247 -46
-290 l-6 -28 -991 0 c-966 0 -993 1 -1024 20 -18 10 -40 31 -50 47 -17 26 -18
119 -18 2108 0 2044 0 2081 19 2112 23 38 68 62 113 63 l33 0 2 -1953z m3152
1938 c18 -9 41 -30 51 -48 19 -31 20 -54 20 -677 l0 -645 -82 -155 -82 -155
-1 848 0 847 31 0 c17 0 45 -7 63 -15z m686 -795 c22 -11 40 -22 40 -25 0 -13
-55 -115 -63 -115 -8 0 -50 21 -75 38 -11 7 -8 21 14 65 16 32 32 57 36 57 5
0 27 -9 48 -20z m-130 -260 l120 -60 -30 -61 c-17 -33 -35 -59 -40 -57 -5 2
-60 30 -123 63 l-115 59 29 58 c16 32 32 58 34 58 3 0 59 -27 125 -60z m-23
-312 c9 -8 4 -26 -22 -79 -20 -38 -39 -69 -43 -69 -16 0 -243 122 -240 129 2
4 19 37 38 73 l34 66 111 -55 c60 -30 115 -60 122 -65z m-252 -225 c63 -32
115 -62 115 -67 0 -11 -1079 -2147 -1091 -2160 -8 -9 -238 102 -242 117 -3 10
1087 2166 1095 2167 4 0 60 -26 123 -57z m-536 -2249 c-9 -11 -44 -14 -145
-14 -74 0 -134 2 -134 5 0 3 64 133 143 290 l142 285 3 -276 c2 -196 -1 -281
-9 -290z m-632 -67 l103 -52 -141 -145 c-77 -80 -138 -138 -136 -130 2 8 17
97 33 198 15 100 30 182 33 181 3 0 52 -23 108 -52z"/>
<path d="M1131 3989 c-44 -18 -81 -51 -102 -90 -19 -38 -20 -55 -17 -373 l3
-334 30 -38 c61 -74 60 -74 423 -74 367 0 376 2 429 82 l28 41 3 311 c3 334 0
363 -45 417 -56 66 -73 69 -418 68 -170 0 -321 -5 -334 -10z m637 -151 c19
-19 17 -581 -2 -597 -9 -8 -99 -11 -307 -9 l-294 3 -3 294 c-2 208 1 298 9
307 16 19 578 21 597 2z"/>
<path d="M1545 3716 c-11 -8 -42 -46 -69 -84 l-49 -71 -32 24 c-62 48 -135 21
-135 -49 0 -29 10 -43 71 -100 112 -104 123 -100 258 90 78 112 86 140 46 179
-27 28 -61 32 -90 11z"/>
<path d="M2152 3777 c-31 -33 -29 -80 4 -106 26 -21 35 -21 584 -21 549 0 558
0 584 21 36 28 36 80 0 108 -26 21 -35 21 -589 21 l-562 0 -21 -23z"/>
<path d="M2156 3429 c-33 -26 -36 -79 -6 -109 19 -19 33 -20 329 -20 l310 0
20 26 c24 30 26 43 10 77 -20 44 -43 47 -348 47 -277 0 -289 -1 -315 -21z"/>
<path d="M1136 2845 c-47 -17 -94 -59 -112 -102 -20 -46 -20 -649 0 -696 17
-43 76 -93 123 -106 52 -15 586 -14 638 0 56 15 104 54 126 103 17 37 19 70
19 351 0 279 -2 314 -19 350 -22 50 -69 91 -119 105 -59 16 -608 12 -656 -5z
m634 -155 c12 -18 13 -570 2 -588 -7 -9 -75 -12 -308 -10 l-299 3 -3 295 c-2
272 -1 296 15 308 28 20 580 13 593 -8z"/>
<path d="M1555 2581 c-11 -5 -44 -43 -74 -85 -30 -42 -56 -76 -59 -76 -2 0
-17 11 -34 25 -37 31 -78 32 -106 2 -40 -43 -30 -76 46 -149 76 -73 100 -85
137 -66 36 19 195 246 195 279 0 51 -58 90 -105 70z"/>
<path d="M2183 2633 c-48 -9 -69 -82 -35 -121 17 -20 30 -20 574 -25 602 -4
611 -4 624 47 11 44 -4 76 -41 92 -29 12 -125 14 -567 13 -293 -1 -543 -4
-555 -6z"/>
<path d="M2150 2260 c-30 -30 -27 -83 6 -109 26 -20 38 -21 315 -21 305 0 328
3 348 47 16 36 14 51 -14 78 l-24 25 -306 0 c-292 0 -306 -1 -325 -20z"/>
<path d="M1111 1692 c-19 -9 -48 -34 -65 -55 l-31 -39 -3 -336 -3 -337 30 -46
c19 -31 43 -53 73 -68 42 -20 58 -21 354 -21 344 0 361 3 417 69 45 54 48 83
45 417 l-3 311 -28 41 c-53 80 -62 82 -429 82 -288 0 -327 -2 -357 -18z m657
-144 c9 -9 12 -88 12 -294 0 -244 -2 -285 -16 -298 -13 -14 -54 -16 -298 -16
-206 0 -285 3 -294 12 -9 9 -12 90 -12 303 0 161 3 295 7 298 3 4 137 7 298 7
213 0 294 -3 303 -12z"/>
<path d="M1544 1432 c-6 -4 -34 -40 -63 -79 -29 -40 -55 -73 -58 -73 -3 0 -18
11 -35 25 -36 30 -67 32 -102 4 -19 -15 -26 -30 -26 -56 0 -31 9 -44 68 -99
72 -69 100 -82 137 -66 33 15 195 248 195 282 0 49 -75 90 -116 62z"/>
<path d="M2152 1447 c-31 -33 -29 -80 4 -106 26 -20 38 -21 324 -21 331 0 333
0 346 67 5 26 1 37 -19 57 l-26 26 -304 0 -304 0 -21 -23z"/>
<path d="M2156 1099 c-33 -26 -36 -79 -6 -109 19 -19 33 -20 214 -20 213 0
228 4 242 62 5 22 0 33 -24 58 l-30 30 -185 0 c-171 0 -186 -1 -211 -21z"/>
</g>
</svg>
